<svg width="40" height="57" viewBox="0 0 40 57" fill="none" xmlns="http://www.w3.org/2000/svg">
<path d="M26.9381 42.7194H12.748L12.748 12.1313L26.9381 12.1313L26.9381 42.7194Z" fill="#145A9C"/>
<mask id="mask0_5_6327" style="mask-type:luminance" maskUnits="userSpaceOnUse" x="15" y="0" width="9" height="13">
<path d="M15.9316 0.814682L23.8377 0.814682V12.2353L15.9316 12.2353L15.9316 0.814682Z" fill="white"/>
</mask>
<g mask="url(#mask0_5_6327)">
<path d="M21.1227 9.35044V0.834152L18.5426 0.834152V9.35044H15.9834V12.1312L23.7028 12.1312V9.35044L21.1227 9.35044Z" fill="#339CFE"/>
</g>
<path d="M21.4142 22.8281V19.4156H18.2481V22.8281H15.1074L15.1074 26.2407H24.5797V22.8281H21.4142Z" fill="#339CFE"/>
<path d="M18.248 39.3075V42.7194H21.4142V39.3075H18.248Z" fill="#339CFE"/>
<path d="M18.248 35.895V39.3075H21.4142V35.895H18.248Z" fill="#072B4D"/>
<path d="M15.1074 39.3075V42.7194H18.2729V39.3075H15.1074Z" fill="#072B4D"/>
<path d="M21.4141 39.3075V42.7194H24.5796V39.3075H21.4141Z" fill="#072B4D"/>
<path d="M24.5797 29.6526H15.1074V26.2407H24.5797V29.6526Z" fill="#072B4D"/>
<path d="M9.60748 22.8281V26.3199H6.46683L6.46683 29.811H3.32617L3.32617 49.703H6.46683L6.46683 46.2112H9.60748V42.7194H12.7481L12.7481 22.8281H9.60748Z" fill="#339CFE"/>
<mask id="mask1_5_6327" style="mask-type:luminance" maskUnits="userSpaceOnUse" x="0" y="26" width="4" height="28">
<path d="M0.185547 26.1568H3.38528L3.38528 53.4841H0.185547L0.185547 26.1568Z" fill="white"/>
</mask>
<g mask="url(#mask1_5_6327)">
<path d="M3.32639 53.3498H0.185059L0.185059 26.3199H3.32639L3.32639 53.3498Z" fill="#145A9C"/>
</g>
<mask id="mask2_5_6327" style="mask-type:luminance" maskUnits="userSpaceOnUse" x="0" y="53" width="4" height="4">
<path d="M0.185547 53.3122H3.38528L3.38528 56.5006H0.185547L0.185547 53.3122Z" fill="white"/>
</mask>
<g mask="url(#mask2_5_6327)">
<path d="M3.32639 56.4858H0.185059L0.185059 53.3498H3.32639L3.32639 56.4858Z" fill="#072B4D"/>
</g>
<path d="M30.0786 22.8281V26.3199H33.22V29.811H36.3606V49.703H33.22L33.22 46.2112H30.0786V42.7194H26.938L26.938 22.8281H30.0786Z" fill="#339CFE"/>
<mask id="mask3_5_6327" style="mask-type:luminance" maskUnits="userSpaceOnUse" x="36" y="26" width="4" height="28">
<path d="M36.2124 26.1568H39.5008L39.5008 53.4841H36.2124L36.2124 26.1568Z" fill="white"/>
</mask>
<g mask="url(#mask3_5_6327)">
<path d="M36.3599 53.3498H39.5012L39.5012 26.3199H36.3599L36.3599 53.3498Z" fill="#145A9C"/>
</g>
<mask id="mask4_5_6327" style="mask-type:luminance" maskUnits="userSpaceOnUse" x="36" y="53" width="4" height="4">
<path d="M36.2124 53.3122H39.5008V56.5006H36.2124V53.3122Z" fill="white"/>
</mask>
<g mask="url(#mask4_5_6327)">
<path d="M36.3599 56.4858H39.5012V53.3498H36.3599V56.4858Z" fill="#072B4D"/>
</g>
<path d="M15.1074 44.0923L15.1074 50.9168H18.2729V44.0923H15.1074Z" fill="#EADC2D"/>
<path d="M18.248 50.9168V54.3293H21.4142V50.9168H18.248Z" fill="#EADC2D"/>
<path d="M21.4141 44.0923V50.9168H24.5796V44.0923H21.4141Z" fill="#EADC2D"/>
<path d="M18.248 44.0923V50.9168H21.4142V44.0923H18.248Z" fill="#339CFE"/>
</svg>