<svg width="24" height="24" viewBox="0 0 24 24" fill="none" xmlns="http://www.w3.org/2000/svg">
<path d="M20.3303 4.50747C18.7535 3.79309 17.0888 3.28628 15.3789 3C15.1449 3.41393 14.9332 3.8398 14.7446 4.27584C12.9232 4.00424 11.071 4.00424 9.24961 4.27584C9.06095 3.83984 8.84924 3.41398 8.61535 3C6.90433 3.2887 5.2386 3.79671 3.66019 4.51121C0.526644 9.099 -0.322811 13.5729 0.101917 17.9832C1.937 19.3249 3.99098 20.3453 6.17458 21C6.66626 20.3456 7.10134 19.6514 7.47519 18.9247C6.76511 18.6622 6.07975 18.3384 5.42706 17.957C5.59884 17.8337 5.76684 17.7067 5.92918 17.5834C7.82837 18.4673 9.90124 18.9255 12 18.9255C14.0987 18.9255 16.1715 18.4673 18.0707 17.5834C18.235 17.7161 18.403 17.8431 18.5729 17.957C17.9189 18.339 17.2323 18.6635 16.5209 18.9265C16.8943 19.6529 17.3294 20.3465 17.8216 21C20.007 20.3479 22.0626 19.328 23.898 17.9851C24.3963 12.8705 23.0467 8.43773 20.3303 4.50747ZM8.01318 15.2709C6.82961 15.2709 5.85179 14.208 5.85179 12.9004C5.85179 11.5928 6.79563 10.5205 8.0094 10.5205C9.22318 10.5205 10.1934 11.5928 10.1727 12.9004C10.1519 14.208 9.21941 15.2709 8.01318 15.2709ZM15.9867 15.2709C14.8013 15.2709 13.8272 14.208 13.8272 12.9004C13.8272 11.5928 14.7711 10.5205 15.9867 10.5205C17.2024 10.5205 18.1651 11.5928 18.1444 12.9004C18.1236 14.208 17.193 15.2709 15.9867 15.2709Z" fill="#FF8700"/>
</svg>
