<svg width="61" height="61" viewBox="0 0 61 61" fill="none" xmlns="http://www.w3.org/2000/svg">
<mask id="mask0_5_7400" style="mask-type:luminance" maskUnits="userSpaceOnUse" x="57" y="38" width="4" height="4">
<path d="M57.1816 38.0309H61V41.9846H57.1816V38.0309Z" fill="white"/>
</mask>
<g mask="url(#mask0_5_7400)">
<path d="M60.9993 38.125V41.9382H57.186V38.125H60.9993Z" fill="#FC0601"/>
</g>
<mask id="mask1_5_7400" style="mask-type:luminance" maskUnits="userSpaceOnUse" x="57" y="26" width="4" height="5">
<path d="M57.1816 26.5463H61V30.5H57.1816V26.5463Z" fill="white"/>
</mask>
<g mask="url(#mask1_5_7400)">
<path d="M60.9993 26.6882V30.5H57.186V26.6882H60.9993Z" fill="#7D0300"/>
</g>
<path d="M57.1863 19.0632V22.8765H53.376V19.0632H57.1863Z" fill="#FC0601"/>
<path d="M57.1863 15.25V19.0632H53.376V15.25H57.1863Z" fill="#FC0601"/>
<path d="M57.1863 11.4382V15.25H53.376V11.4382H57.1863Z" fill="#7D0300"/>
<path d="M53.3762 41.9382V45.75H49.563V41.9382H53.3762Z" fill="#FC0601"/>
<path d="M53.3762 34.3132V38.125H49.563V34.3132H53.3762Z" fill="#7D0300"/>
<path d="M53.3762 15.25V19.0632H49.563V15.25H53.3762Z" fill="#FC0601"/>
<path d="M53.3762 11.4382V15.25H49.563V11.4382H53.3762Z" fill="#FC0601"/>
<path d="M53.3762 7.62645V11.4382H49.563V7.62645H53.3762Z" fill="#7D0300"/>
<path d="M53.3762 0V3.81324H49.563V0H53.3762Z" fill="#FC0601"/>
<path d="M49.5637 45.75V49.5632H45.7505V45.75H49.5637Z" fill="#7D0300"/>
<path d="M49.5637 11.4382V15.25H45.7505V11.4382H49.5637Z" fill="#FC0601"/>
<path d="M49.5637 7.62645V11.4382H45.7505V7.62645H49.5637Z" fill="#7D0300"/>
<path d="M45.7502 57.1882V61H41.937V57.1882H45.7502Z" fill="#7D0300"/>
<path d="M45.7502 45.75V49.5632H41.937V45.75H45.7502Z" fill="#FC0601"/>
<path d="M45.7502 34.3132V38.125H41.937V34.3132H45.7502Z" fill="#FC0601"/>
<path d="M45.7502 30.5V34.3132H41.937V30.5H45.7502Z" fill="#FE9000"/>
<path d="M45.7502 26.6882V30.5H41.937V26.6882H45.7502Z" fill="#FE9000"/>
<path d="M45.7502 22.8764V26.6882H41.937V22.8764H45.7502Z" fill="#FC0601"/>
<path d="M45.7502 7.62645V11.4382H41.937V7.62645H45.7502Z" fill="#FC0601"/>
<path d="M45.7502 3.81325V7.62648H41.937V3.81325H45.7502Z" fill="#7D0300"/>
<path d="M41.9363 49.5632V53.375H38.126V49.5632H41.9363Z" fill="#7D0300"/>
<path d="M41.9363 38.125V41.9382H38.126V38.125H41.9363Z" fill="#FC0601"/>
<path d="M41.9363 34.3132V38.125H38.126V34.3132H41.9363Z" fill="#FE9000"/>
<path d="M41.9363 30.5V34.3132H38.126V30.5H41.9363Z" fill="#F4DB29"/>
<path d="M41.9363 26.6882V30.5H38.126V26.6882H41.9363Z" fill="#F4DB29"/>
<path d="M41.9363 22.8764V26.6882H38.126V22.8764H41.9363Z" fill="#FE9000"/>
<path d="M41.9363 19.0632V22.8765H38.126V19.0632H41.9363Z" fill="#FC0601"/>
<path d="M41.9363 7.62645V11.4382H38.126V7.62645H41.9363Z" fill="#FC0601"/>
<path d="M41.9363 3.81325V7.62648H38.126V3.81325H41.9363Z" fill="#7D0300"/>
<path d="M38.1267 49.5632V53.375H34.3135V49.5632H38.1267Z" fill="#FC0601"/>
<path d="M38.1267 38.125V41.9382H34.3135V38.125H38.1267Z" fill="#FE9000"/>
<path d="M38.1267 34.3132V38.125H34.3135V34.3132H38.1267Z" fill="#F4DB29"/>
<path d="M38.1267 30.5V34.3132H34.3135V30.5H38.1267Z" fill="#FFF9CF"/>
<path d="M38.1267 26.6882V30.5H34.3135V26.6882H38.1267Z" fill="#FFF9CF"/>
<path d="M38.1267 22.8764V26.6882H34.3135V22.8764H38.1267Z" fill="#F4DB29"/>
<path d="M38.1267 19.0632V22.8765H34.3135V19.0632H38.1267Z" fill="#FE9000"/>
<path d="M38.1267 15.25V19.0632H34.3135V15.25H38.1267Z" fill="#FC0601"/>
<path d="M38.1267 7.62645V11.4382H34.3135V7.62645H38.1267Z" fill="#FC0601"/>
<path d="M38.1267 3.81325V7.62648H34.3135V3.81325H38.1267Z" fill="#7D0300"/>
<path d="M34.3132 49.5632V53.375H30.5V49.5632H34.3132Z" fill="#FC0601"/>
<path d="M34.3132 38.125V41.9382H30.5V38.125H34.3132Z" fill="#FE9000"/>
<path d="M34.3132 34.3132V38.125H30.5V34.3132H34.3132Z" fill="#F4DB29"/>
<path d="M34.3132 30.5V34.3132H30.5V30.5H34.3132Z" fill="#FFF9CF"/>
<path d="M34.3132 26.6882V30.5H30.5V26.6882H34.3132Z" fill="#FFF9CF"/>
<path d="M34.3132 22.8764V26.6882H30.5V22.8764H34.3132Z" fill="#FFF9CF"/>
<path d="M34.3132 19.0632V22.8765H30.5V19.0632H34.3132Z" fill="#F4DB29"/>
<path d="M34.3132 15.25V19.0632H30.5V15.25H34.3132Z" fill="#FE9000"/>
<path d="M34.3132 3.81325V7.62648H30.5V3.81325H34.3132Z" fill="#7D0300"/>
<path d="M30.5002 49.5632V53.375H26.687V49.5632H30.5002Z" fill="#7D0300"/>
<path d="M30.5002 45.75V49.5632H26.687V45.75H30.5002Z" fill="#FC0601"/>
<path d="M30.5002 38.125V41.9382H26.687V38.125H30.5002Z" fill="#FE9000"/>
<path d="M30.5002 34.3132V38.125H26.687V34.3132H30.5002Z" fill="#F4DB29"/>
<path d="M30.5002 30.5V34.3132H26.687V30.5H30.5002Z" fill="#FFF9CF"/>
<path d="M30.5002 26.6882V30.5H26.687V26.6882H30.5002Z" fill="#FFF9CF"/>
<path d="M30.5002 22.8764V26.6882H26.687V22.8764H30.5002Z" fill="#FFF9CF"/>
<path d="M30.5002 19.0632V22.8765H26.687V19.0632H30.5002Z" fill="#F4DB29"/>
<path d="M30.5002 15.25V19.0632H26.687V15.25H30.5002Z" fill="#FE9000"/>
<path d="M30.5002 7.62645V11.4382H26.687V7.62645H30.5002Z" fill="#FC0601"/>
<path d="M26.6872 49.5632V53.375H22.877V49.5632H26.6872Z" fill="#7D0300"/>
<path d="M26.6872 45.75V49.5632H22.877V45.75H26.6872Z" fill="#FC0601"/>
<path d="M26.6872 38.125V41.9382H22.877V38.125H26.6872Z" fill="#FC0601"/>
<path d="M26.6872 34.3132V38.125H22.877V34.3132H26.6872Z" fill="#FE9000"/>
<path d="M26.6872 30.5V34.3132H22.877V30.5H26.6872Z" fill="#F4DB29"/>
<path d="M26.6872 26.6882V30.5H22.877V26.6882H26.6872Z" fill="#FFF9CF"/>
<path d="M26.6872 22.8764V26.6882H22.877V22.8764H26.6872Z" fill="#F4DB29"/>
<path d="M26.6872 19.0632V22.8765H22.877V19.0632H26.6872Z" fill="#F4DB29"/>
<path d="M26.6872 15.25V19.0632H22.877V15.25H26.6872Z" fill="#FE9000"/>
<path d="M26.6872 0V3.81324H22.877V0H26.6872Z" fill="#7D0300"/>
<path d="M22.8767 45.75V49.5632H19.0635V45.75H22.8767Z" fill="#7D0300"/>
<path d="M22.8767 34.3132V38.125H19.0635V34.3132H22.8767Z" fill="#FC0601"/>
<path d="M22.8767 30.5V34.3132H19.0635V30.5H22.8767Z" fill="#FE9000"/>
<path d="M22.8767 26.6882V30.5H19.0635V26.6882H22.8767Z" fill="#F4DB29"/>
<path d="M22.8767 22.8764V26.6882H19.0635V22.8764H22.8767Z" fill="#F4DB29"/>
<path d="M22.8767 19.0632V22.8765H19.0635V19.0632H22.8767Z" fill="#FE9000"/>
<path d="M22.8767 15.25V19.0632H19.0635V15.25H22.8767Z" fill="#FC0601"/>
<path d="M19.0632 45.75V49.5632H15.25V45.75H19.0632Z" fill="#7D0300"/>
<path d="M19.0632 41.9382V45.75H15.25V41.9382H19.0632Z" fill="#FC0601"/>
<path d="M19.0632 30.5V34.3132H15.25V30.5H19.0632Z" fill="#FC0601"/>
<path d="M19.0632 26.6882V30.5H15.25V26.6882H19.0632Z" fill="#FE9000"/>
<path d="M19.0632 22.8764V26.6882H15.25V22.8764H19.0632Z" fill="#FE9000"/>
<path d="M19.0632 19.0632V22.8765H15.25V19.0632H19.0632Z" fill="#FC0601"/>
<path d="M19.0632 7.62645V11.4382H15.25V7.62645H19.0632Z" fill="#FC0601"/>
<path d="M19.0632 3.81325V7.62648H15.25V3.81325H19.0632Z" fill="#FC0601"/>
<path d="M15.25 53.375V57.1882H11.439V53.375H15.25Z" fill="#FC0601"/>
<path d="M15.25 41.9382V45.75H11.439V41.9382H15.25Z" fill="#7D0300"/>
<path d="M15.25 38.125V41.9382H11.439V38.125H15.25Z" fill="#FC0601"/>
<path d="M15.25 11.4382V15.25H11.439V11.4382H15.25Z" fill="#FC0601"/>
<path d="M15.25 7.62645V11.4382H11.439V7.62645H15.25Z" fill="#FC0601"/>
<path d="M15.25 3.81325V7.62648H11.439V3.81325H15.25Z" fill="#7D0300"/>
<path d="M11.4392 19.0632V22.8765H7.62598V19.0632H11.4392Z" fill="#FC0601"/>
<path d="M11.4392 15.25V19.0632H7.62598V15.25H11.4392Z" fill="#FC0601"/>
<path d="M11.4392 11.4382V15.25H7.62598V11.4382H11.4392Z" fill="#7D0300"/>
<path d="M11.4392 7.62645V11.4382H7.62598V7.62645H11.4392Z" fill="#7D0300"/>
<path d="M7.62598 34.3132V38.125H3.81348V34.3132H7.62598Z" fill="#7D0300"/>
<mask id="mask2_5_7400" style="mask-type:luminance" maskUnits="userSpaceOnUse" x="0" y="22" width="4" height="5">
<path d="M0 22.7809H3.90075V26.7346H0V22.7809Z" fill="white"/>
</mask>
<g mask="url(#mask2_5_7400)">
<path d="M3.81324 22.8765V26.6882H0V22.8765H3.81324Z" fill="#FC0601"/>
</g>
<mask id="mask3_5_7400" style="mask-type:luminance" maskUnits="userSpaceOnUse" x="0" y="3" width="4" height="5">
<path d="M0 3.76543H3.90075V7.71913H0V3.76543Z" fill="white"/>
</mask>
<g mask="url(#mask3_5_7400)">
<path d="M3.81324 3.81323V7.62647H0V3.81323H3.81324Z" fill="#7D0300"/>
</g>
</svg>