<svg width="24" height="24" viewBox="0 0 24 24" fill="none" xmlns="http://www.w3.org/2000/svg">
<path d="M9.27554 3.81897H3.82666V2.00082H9.27554V3.81897Z" fill="#93ED00"/>
<path d="M20.1733 5.6376V3.81946H14.7245V5.6376H12.9083V7.45502H11.0923V5.6417H11.0918V5.6376H9.27559V3.81946H3.82671V5.6376H2.01025V7.45502V11.0915H3.82671V12.9092H5.64292V14.7269H6.01065V14.7271H7.68266V14.7276H7.45937V16.5452H9.4181H9.27559V18.3629H11.0923V20.181H12.9083V18.3634H12.908V18.3629H14.7245V16.5452H16.5407V14.7276H16.3174V14.7271H17.9892V14.7269H18.3571V12.9092H17.9892H20.1733V11.0915H21.9898V5.6376H20.1733Z" fill="#93ED00"/>
<path d="M11.0918 7.45501H12.9083V5.63687H11.0918V7.45501Z" fill="#93ED00"/>
<path d="M12.9082 5.63687H14.7244V3.81897H12.9082V5.63687Z" fill="#93ED00"/>
<path d="M18.3574 14.7271H20.1736V12.9092H18.3574V14.7271Z" fill="#93ED00"/>
<path d="M20.1733 12.9092H21.9898V11.0911H20.1733V12.9092Z" fill="#93ED00"/>
<path d="M14.7246 18.3631H16.5408V16.5452H14.7246V18.3631Z" fill="#93ED00"/>
<path d="M16.5405 16.5453H18.357V14.7271H16.5405V16.5453Z" fill="#93ED00"/>
<mask id="mask0_127_457" style="mask-type:luminance" maskUnits="userSpaceOnUse" x="11" y="20" width="2" height="2">
<path d="M11.0557 20.1521H12.9447V21.9992H11.0557V20.1521Z" fill="white"/>
</mask>
<g mask="url(#mask0_127_457)">
<path d="M11.0918 21.9992H12.9083V20.1813H11.0918V21.9992Z" fill="#93ED00"/>
</g>
<path d="M12.9082 20.1813H14.7244V18.3631H12.9082V20.1813Z" fill="#93ED00"/>
<path d="M3.82666 12.9092V14.7274H5.64311V12.9092H3.82666Z" fill="#93ED00"/>
<path d="M2.01074 11.0913V12.9092H3.82696V11.0913H2.01074Z" fill="#93ED00"/>
<path d="M9.27569 16.5455H7.45947V18.3634H9.2752V20.1811H11.0914V18.3632H9.27569V16.5455Z" fill="#93ED00"/>
<path d="M5.64307 14.7273V16.5455H7.45952V14.7273H5.64307Z" fill="#93ED00"/>
<path d="M20.1733 3.81897V5.63687H21.9898V3.81897H20.1733Z" fill="#93ED00"/>
<path d="M9.27588 3.81897V5.63687H11.0921V3.81897H9.27588Z" fill="#93ED00"/>
<path d="M18.3573 2.00082H14.7246V3.81897H20.1735V2.00082H18.3573Z" fill="#93ED00"/>
<path d="M7.45933 2.00082H3.82666V3.81897H9.27554V2.00082H7.45933Z" fill="#93ED00"/>
<mask id="mask1_127_457" style="mask-type:luminance" maskUnits="userSpaceOnUse" x="21" y="5" width="3" height="7">
<path d="M21.9668 5.58069H23.8062V11.1364H21.9668V5.58069Z" fill="white"/>
</mask>
<g mask="url(#mask1_127_457)">
<path d="M21.9902 5.6369V11.0911H23.8064V5.6369H21.9902Z" fill="#93ED00"/>
</g>
<mask id="mask2_127_457" style="mask-type:luminance" maskUnits="userSpaceOnUse" x="0" y="3" width="4" height="9">
<path d="M0.194336 3.7905H3.87981V11.1364H0.194336V3.7905Z" fill="white"/>
</mask>
<g mask="url(#mask2_127_457)">
<path d="M2.01055 9.2734V5.63711H3.82676V3.81921H2.01055V5.63687H0.194336V11.0913H2.01055V9.2734Z" fill="#93ED00"/>
</g>
<path d="M5.6436 5.63711H3.82715V3.81897H5.6436V5.63711Z" fill="#93ED00"/>
<path d="M2.01074 5.63687V11.0911H3.82696V5.63687H2.01074Z" fill="#93ED00"/>
<path d="M17.449 7.47766H15.6328V5.65976H17.449V7.47766Z" fill="white"/>
<path d="M19.2652 7.47766H17.4487V5.65976H19.2652V7.47766Z" fill="white"/>
<path d="M19.2654 9.27316H17.4492V7.45502H19.2654V9.27316Z" fill="white"/>
<path d="M11.0923 20.181H12.9085V18.3631H11.0923V20.181Z" fill="#93ED00"/>
<path d="M18.3569 12.9092H20.1734V11.0911H18.3569V12.9092Z" fill="#93ED00"/>
<path d="M14.7247 16.5447H12.9087V18.3629H14.7251V16.5452H16.5409V14.7273H14.7247V16.5447Z" fill="#93ED00"/>
<path d="M16.5405 14.7274H18.3567V12.9092H16.5405V14.7274Z" fill="#93ED00"/>
<path d="M11.0918 18.3631V20.1813H12.9083V18.3631H11.0918Z" fill="#93ED00"/>
<path d="M3.82666 11.0913V12.9092H5.64311V11.0913H3.82666Z" fill="#93ED00"/>
<path d="M9.27593 14.7273H7.45947V16.5455H9.2752V18.3631H11.0917V16.5447H9.27593V14.7273Z" fill="#93ED00"/>
<path d="M5.64307 12.9092V14.7274H7.45928V12.9092H5.64307Z" fill="#93ED00"/>
</svg>
