<svg width="100" height="100" viewBox="0 0 100 100" fill="none" xmlns="http://www.w3.org/2000/svg">
<path d="M74.9294 51.4281C73.4249 52.298 71.6906 52.7887 69.8414 52.7887C64.1681 52.7887 59.567 48.1439 59.567 42.4117C59.567 40.014 60.3767 37.8059 61.7226 36.0551C58.1993 34.2763 54.2164 33.2726 50.0093 33.2726C45.7967 33.2726 41.8193 34.2763 38.2906 36.0551C39.6419 37.8059 40.4461 40.014 40.4461 42.4117C40.4461 48.1439 35.8505 52.7887 30.1717 52.7887C28.3225 52.7887 26.5828 52.298 25.0837 51.4281C24.2248 54.06 23.7543 56.8647 23.7543 59.7921C23.7543 59.7921 39.0072 63.5783 40.7744 80.0665L43.8764 81.4438C47.9303 82.1854 52.0773 82.1854 56.1367 81.4438L59.2442 80.0554C61.0113 63.5671 76.2643 59.7866 76.2643 59.7866C76.2643 56.8647 75.7993 54.0544 74.9294 51.4281ZM39.8607 67.2417C38.2632 66.5057 37.076 65.0392 36.332 63.4333C35.5879 61.8274 35.0135 59.7475 34.6524 58.0078C37.2675 61.5151 40.7196 64.3812 44.6368 66.2938C43.3566 67.4982 41.4528 67.9777 39.8607 67.2417ZM63.6702 63.4333C62.9262 65.0392 61.7499 66.5112 60.1415 67.2417C58.5439 67.9777 56.6455 67.4982 55.3653 66.2938C59.2771 64.3812 62.7237 61.5151 65.3443 58.0078C64.9887 59.7475 64.4143 61.8218 63.6702 63.4333Z" fill="#FF8700"/>
<path d="M64.3541 38.726C62.9371 39.384 61.9961 40.8003 61.9906 42.3727C61.9906 42.3839 61.9906 42.395 61.9906 42.4062C61.9906 46.7778 65.5084 50.3297 69.8359 50.3297C70.7605 50.3297 71.6632 50.168 72.5167 49.8557C72.9161 49.7108 73.2771 49.4933 73.6054 49.2368C73.6875 49.1643 73.775 49.0918 73.8625 49.0249C75.6898 47.4413 76.9481 45.2611 77.7688 42.9749C79.3499 38.5922 79.4101 33.6574 77.9384 29.2301C76.4722 24.8139 74.0103 20.5259 70.1204 18C72.8832 22.0426 73.31 27.5852 71.2146 32.0125C69.814 34.9789 67.3084 37.3599 64.3541 38.726Z" fill="#FF8700"/>
<path d="M35.6481 38.726C37.065 39.384 38.006 40.8003 38.0115 42.3727C38.0115 42.3839 38.0115 42.395 38.0115 42.4062C38.0115 46.7778 34.4937 50.3297 30.1662 50.3297C29.2416 50.3297 28.3334 50.168 27.48 49.8557C27.0861 49.7108 26.725 49.4933 26.3967 49.2368C26.3092 49.1643 26.2271 49.0918 26.1396 49.0249C24.3123 47.4413 23.054 45.2611 22.2333 42.9749C20.6522 38.5922 20.5866 33.6574 22.0637 29.2301C23.5354 24.8139 25.9919 20.5259 29.8762 18C27.1189 22.0426 26.6922 27.5852 28.7875 32.0125C30.1881 34.9789 32.6938 37.3599 35.6481 38.726Z" fill="#FF8700"/>
</svg>
