<svg width="340" height="100" viewBox="0 0 340 100" fill="none" xmlns="http://www.w3.org/2000/svg">
<path d="M69.1758 51.4281C67.6366 52.298 65.8622 52.7887 63.9703 52.7887C58.1658 52.7887 53.4584 48.1439 53.4584 42.4117C53.4584 40.014 54.2868 37.8059 55.6638 36.0551C52.059 34.2763 47.9842 33.2726 43.6798 33.2726C39.3698 33.2726 35.3005 34.2763 31.6902 36.0551C33.0727 37.8059 33.8955 40.014 33.8955 42.4117C33.8955 48.1439 29.1937 52.7887 23.3837 52.7887C21.4918 52.7887 19.7118 52.298 18.1781 51.4281C17.2993 54.06 16.8179 56.8647 16.8179 59.7921C16.8179 59.7921 32.4234 63.5783 34.2314 80.0665L37.4051 81.4438C41.5528 82.1854 45.7956 82.1854 49.9488 81.4438L53.1281 80.0554C54.9361 63.5671 70.5416 59.7866 70.5416 59.7866C70.5416 56.8647 70.0658 54.0544 69.1758 51.4281ZM33.2966 67.2417C31.6622 66.5057 30.4476 65.0392 29.6863 63.4333C28.9251 61.8274 28.3373 59.7475 27.9679 58.0078C30.6435 61.5151 34.1754 64.3812 38.1831 66.2938C36.8734 67.4982 34.9255 67.9777 33.2966 67.2417ZM57.6564 63.4333C56.8952 65.0392 55.6917 66.5112 54.0461 67.2417C52.4117 67.9777 50.4694 67.4982 49.1596 66.2938C53.1617 64.3812 56.6881 61.5151 59.3692 58.0078C59.0054 59.7475 58.4177 61.8218 57.6564 63.4333Z" fill="#FF8700"/>
<path d="M58.3561 38.726C56.9064 39.384 55.9436 40.8003 55.938 42.3727C55.938 42.3839 55.938 42.395 55.938 42.4062C55.938 46.7778 59.5371 50.3297 63.9646 50.3297C64.9106 50.3297 65.8342 50.168 66.7074 49.8557C67.116 49.7108 67.4854 49.4933 67.8212 49.2368C67.9052 49.1643 67.9948 49.0918 68.0843 49.0249C69.9538 47.4413 71.2412 45.2611 72.0808 42.9749C73.6985 38.5922 73.7601 33.6574 72.2544 29.2301C70.7543 24.8139 68.2354 20.5259 64.2557 18C67.0824 22.0426 67.519 27.5852 65.3752 32.0125C63.9423 34.9789 61.3787 37.3599 58.3561 38.726Z" fill="#FF8700"/>
<path d="M28.9866 38.726C30.4363 39.384 31.3991 40.8003 31.4047 42.3727C31.4047 42.3839 31.4047 42.395 31.4047 42.4062C31.4047 46.7778 27.8056 50.3297 23.378 50.3297C22.4321 50.3297 21.5029 50.168 20.6297 49.8557C20.2267 49.7108 19.8573 49.4933 19.5215 49.2368C19.4319 49.1643 19.3479 49.0918 19.2584 49.0249C17.3889 47.4413 16.1015 45.2611 15.2618 42.9749C13.6442 38.5922 13.577 33.6574 15.0883 29.2301C16.594 24.8139 19.1072 20.5259 23.0814 18C20.2603 22.0426 19.8237 27.5852 21.9675 32.0125C23.4004 34.9789 25.964 37.3599 28.9866 38.726Z" fill="#FF8700"/>
<path d="M135.402 52.6791L126.713 68.1352H118.025L109.336 52.6791V76.7906H98.1651V33.5134H109.957L122.369 56.3885L134.781 33.5134H146.573V76.7906H135.402V52.6791Z" fill="#FF8700"/>
<path d="M193.636 76.7906H159.192V33.5134H193.636V42.1689H170.363V50.5152H188.672V59.1706H170.363V68.1352H193.636V76.7906Z" fill="#FF8700"/>
<path d="M214.841 68.1352H237.493V76.7906H203.67V33.5134H214.841V68.1352Z" fill="#FF8700"/>
<path d="M280.523 76.7906H246.078V33.5134H280.523V42.1689H257.249V50.5152H275.558V59.1706H257.249V68.1352H280.523V76.7906Z" fill="#FF8700"/>
<path d="M325 76.7906H290.556V33.5134H325V42.1689H301.727V50.5152H320.035V59.1706H301.727V68.1352H325V76.7906Z" fill="#FF8700"/>
</svg>
