<svg width="40" height="56" viewBox="0 0 40 56" fill="none" xmlns="http://www.w3.org/2000/svg">
<path d="M26.7525 41.9047H12.5625L12.5625 11.3166L26.7525 11.3166L26.7525 41.9047Z" fill="#A0138A"/>
<mask id="mask0_5_6249" style="mask-type:luminance" maskUnits="userSpaceOnUse" x="15" y="0" width="9" height="12">
<path d="M15.7461 -1.52588e-05L23.6521 -1.52588e-05V11.4206L15.7461 11.4206L15.7461 -1.52588e-05Z" fill="white"/>
</mask>
<g mask="url(#mask0_5_6249)">
<path d="M20.9372 8.53575V0.019455L18.3571 0.019455V8.53575H15.7979V11.3165L23.5172 11.3165V8.53575L20.9372 8.53575Z" fill="#FF31DE"/>
</g>
<path d="M21.2287 22.0134V18.6009H18.0625V22.0134H14.9219V25.426H24.3942V22.0134H21.2287Z" fill="#FF31DE"/>
<path d="M18.0625 38.4928V41.9047H21.2287V38.4928H18.0625Z" fill="#FF31DE"/>
<path d="M18.0625 35.0803V38.4928H21.2287V35.0803H18.0625Z" fill="#680358"/>
<path d="M14.9219 38.4928V41.9047H18.0874V38.4928H14.9219Z" fill="#680358"/>
<path d="M21.2285 38.4928V41.9047H24.394V38.4928H21.2285Z" fill="#680358"/>
<path d="M24.3942 28.8379H14.9219V25.426H24.3942V28.8379Z" fill="#680358"/>
<path d="M9.42193 22.0134V25.5052H6.28128L6.28128 28.9963H3.14063L3.14063 48.8883H6.28128L6.28128 45.3965H9.42193V41.9047H12.5626L12.5626 22.0134H9.42193Z" fill="#FF31DE"/>
<mask id="mask1_5_6249" style="mask-type:luminance" maskUnits="userSpaceOnUse" x="0" y="25" width="4" height="28">
<path d="M0 25.3421H3.19974L3.19974 52.6694H0L0 25.3421Z" fill="white"/>
</mask>
<g mask="url(#mask1_5_6249)">
<path d="M3.14084 52.5351H-0.000488281L-0.000488281 25.5052H3.14084L3.14084 52.5351Z" fill="#A0138A"/>
</g>
<mask id="mask2_5_6249" style="mask-type:luminance" maskUnits="userSpaceOnUse" x="0" y="52" width="4" height="4">
<path d="M0 52.4976H3.19974L3.19974 55.6859H0L0 52.4976Z" fill="white"/>
</mask>
<g mask="url(#mask2_5_6249)">
<path d="M3.14084 55.6711H-0.000488281L-0.000488281 52.5351H3.14084L3.14084 55.6711Z" fill="#680358"/>
</g>
<path d="M29.8931 22.0134V25.5052H33.0344V28.9963H36.1751V48.8883H33.0344V45.3965H29.8931V41.9047H26.7524L26.7524 22.0134H29.8931Z" fill="#FF31DE"/>
<mask id="mask3_5_6249" style="mask-type:luminance" maskUnits="userSpaceOnUse" x="36" y="25" width="4" height="28">
<path d="M36.0269 25.3421H39.3152V52.6694H36.0269V25.3421Z" fill="white"/>
</mask>
<g mask="url(#mask3_5_6249)">
<path d="M36.1748 52.5351H39.3161V25.5052H36.1748V52.5351Z" fill="#A0138A"/>
</g>
<mask id="mask4_5_6249" style="mask-type:luminance" maskUnits="userSpaceOnUse" x="36" y="52" width="4" height="4">
<path d="M36.0269 52.4976H39.3152V55.6859H36.0269V52.4976Z" fill="white"/>
</mask>
<g mask="url(#mask4_5_6249)">
<path d="M36.1748 55.6711H39.3161V52.5351H36.1748V55.6711Z" fill="#680358"/>
</g>
<path d="M14.9219 43.2776V50.1021H18.0874V43.2776H14.9219Z" fill="#EADC2D"/>
<path d="M18.0625 50.1021V53.5147H21.2287V50.1021H18.0625Z" fill="#EADC2D"/>
<path d="M21.2285 43.2776V50.1021H24.394V43.2776H21.2285Z" fill="#EADC2D"/>
<path d="M18.0625 43.2776V50.1021H21.2287V43.2776H18.0625Z" fill="#FF31DE"/>
</svg>
