<svg width="40" height="41" viewBox="0 0 40 41" fill="none" xmlns="http://www.w3.org/2000/svg">
<g opacity="0.4">
<mask id="mask0_5_12587" style="mask-type:luminance" maskUnits="userSpaceOnUse" x="0" y="0" width="40" height="41">
<path d="M0 0H40V40.8527H0V0Z" fill="white"/>
</mask>
<g mask="url(#mask0_5_12587)">
<path d="M37.3297 16.0036V13.3427H29.3283V10.6731H26.6667V8.01151H23.9964V2.68105H21.3348V0.0115051H18.6645V2.68105H15.995V8.01151H13.3333V10.6731H10.6631V13.3427H2.66954V16.0036H0V21.3427H2.66954V24.0043H5.33118V38.2852L8.67313 40.75L13.3333 38.2852L15.995 35.6236L19.3283 34.2888L23.9964 35.6236L26.6667 38.2852L30.6552 40.3973L34.6595 38.2852V24.0043H37.3297V21.3427H40V16.0036H37.3297Z" fill="#FDDE5F"/>
</g>
<path d="M21.3344 32.954H15.9946V35.6236H13.333V38.2931H16.0025V35.6236H23.9961V32.954H21.3344Z" fill="#FD8726"/>
<mask id="mask1_5_12587" style="mask-type:luminance" maskUnits="userSpaceOnUse" x="5" y="38" width="9" height="3">
<path d="M5.30371 38.278H13.3957V40.9655H5.30371V38.278Z" fill="white"/>
</mask>
<g mask="url(#mask1_5_12587)">
<path d="M8.00131 38.2852H5.33105V40.9548H13.3332V38.2852H8.00131Z" fill="#FD8726"/>
</g>
<mask id="mask2_5_12587" style="mask-type:luminance" maskUnits="userSpaceOnUse" x="23" y="35" width="12" height="6">
<path d="M23.8789 35.5194H34.7295V40.9655H23.8789V35.5194Z" fill="white"/>
</mask>
<g mask="url(#mask2_5_12587)">
<path d="M31.9985 38.2853H26.6673V35.6237H23.9971V38.2932H26.6673V40.9548H34.6601V38.2853H31.9985Z" fill="#FD8726"/>
</g>
<path d="M34.6597 16.0036H29.3285V13.3427H26.6669V10.6731H23.9966V8.01149H21.335V10.6731H23.9966V13.3427H26.6669V16.0036H29.3285V18.6731H37.3299V16.0036H34.6597Z" fill="white"/>
<path d="M15.9946 10.6731H13.333V13.3427H16.0025V10.6731H18.6642V8.01149H15.9946V10.6731Z" fill="white"/>
<path d="M18.6641 2.68103H21.3343V5.35057H18.6641V2.68103Z" fill="white"/>
<path d="M10.6635 16.0036H2.66992V18.6731H10.6635V16.0122H13.3337V13.3427H10.6635V16.0036Z" fill="white"/>
<path d="M13.333 21.3427V24.0043H15.9946V18.6731H13.333V21.3427Z" fill="#4D3C3E"/>
<path d="M23.9961 18.6731V24.0043H26.6664V18.6731H23.9961Z" fill="#4D3C3E"/>
</g>
</svg>
