<svg width="60" height="61" viewBox="0 0 60 61" fill="none" xmlns="http://www.w3.org/2000/svg">
<path d="M37.095 44.7132H22.905V14.125H37.095V44.7132Z" fill="#A55B05"/>
<mask id="mask0_15_920" style="mask-type:luminance" maskUnits="userSpaceOnUse" x="26" y="2" width="8" height="13">
<path d="M26.0886 2.80835H33.9946V14.229H26.0886V2.80835Z" fill="white"/>
</mask>
<g mask="url(#mask0_15_920)">
<path d="M31.2797 11.3442V2.82788H28.6996V11.3442H26.1404V14.125H33.8598V11.3442H31.2797Z" fill="#FFB763"/>
</g>
<path d="M31.571 24.8217V21.4092H28.4048V24.8217H25.2642V28.2343H34.7365V24.8217H31.571Z" fill="#FFB763"/>
<path d="M28.4048 41.3013V44.7132H31.571V41.3013H28.4048Z" fill="#FFB763"/>
<path d="M28.4048 37.8887V41.3012H31.571V37.8887H28.4048Z" fill="#4B2B05"/>
<path d="M25.2642 41.3013V44.7132H28.4297V41.3013H25.2642Z" fill="#4B2B05"/>
<path d="M31.5708 41.3013V44.7132H34.7363V41.3013H31.5708Z" fill="#4B2B05"/>
<path d="M34.7365 31.6463H25.2642V28.2344H34.7365V31.6463Z" fill="#4B2B05"/>
<path d="M19.7642 24.8218V28.3136H16.6236V31.8047H13.4829V51.6966H16.6236V48.2048H19.7642V44.713H22.9049V24.8218H19.7642Z" fill="#FFB763"/>
<mask id="mask1_15_920" style="mask-type:luminance" maskUnits="userSpaceOnUse" x="10" y="28" width="4" height="28">
<path d="M10.3423 28.1504H13.542V55.4777H10.3423V28.1504Z" fill="white"/>
</mask>
<g mask="url(#mask1_15_920)">
<path d="M13.4829 55.3434H10.3416V28.3135H13.4829V55.3434Z" fill="#A55B05"/>
</g>
<mask id="mask2_15_920" style="mask-type:luminance" maskUnits="userSpaceOnUse" x="10" y="55" width="4" height="4">
<path d="M10.3423 55.3059H13.542V58.4942H10.3423V55.3059Z" fill="white"/>
</mask>
<g mask="url(#mask2_15_920)">
<path d="M13.4829 58.4795H10.3416V55.3435H13.4829V58.4795Z" fill="#4B2B05"/>
</g>
<path d="M40.2356 24.8218V28.3136H43.377V31.8047H46.5176V51.6966H43.377V48.2048H40.2356V44.713H37.095V24.8218H40.2356Z" fill="#FFB763"/>
<mask id="mask3_15_920" style="mask-type:luminance" maskUnits="userSpaceOnUse" x="46" y="28" width="4" height="28">
<path d="M46.3691 28.1504H49.6575V55.4777H46.3691V28.1504Z" fill="white"/>
</mask>
<g mask="url(#mask3_15_920)">
<path d="M46.5168 55.3434H49.6582V28.3135H46.5168V55.3434Z" fill="#A55B05"/>
</g>
<mask id="mask4_15_920" style="mask-type:luminance" maskUnits="userSpaceOnUse" x="46" y="55" width="4" height="4">
<path d="M46.3691 55.3059H49.6575V58.4942H46.3691V55.3059Z" fill="white"/>
</mask>
<g mask="url(#mask4_15_920)">
<path d="M46.5168 58.4795H49.6582V55.3435H46.5168V58.4795Z" fill="#4B2B05"/>
</g>
<path d="M25.2642 46.0859V52.9104H28.4297V46.0859H25.2642Z" fill="#EADC2D"/>
<path d="M28.4048 52.9104V56.323H31.571V52.9104H28.4048Z" fill="#EADC2D"/>
<path d="M31.5708 46.0859V52.9104H34.7363V46.0859H31.5708Z" fill="#EADC2D"/>
<path d="M28.4048 46.0859V52.9104H31.571V46.0859H28.4048Z" fill="#FFB763"/>
</svg>
