<svg width="60" height="60" viewBox="0 0 60 60" fill="none" xmlns="http://www.w3.org/2000/svg">
<path d="M22.905 15.9382L37.095 15.9382L37.095 46.5264L22.905 46.5264L22.905 15.9382Z" fill="#A0138A"/>
<mask id="mask0_15_917" style="mask-type:luminance" maskUnits="userSpaceOnUse" x="26" y="46" width="8" height="12">
<path d="M33.9114 57.8429L26.0054 57.8429L26.0054 46.4223L33.9114 46.4223L33.9114 57.8429Z" fill="white"/>
</mask>
<g mask="url(#mask0_15_917)">
<path d="M28.7203 49.3071L28.7203 57.8234L31.3004 57.8234L31.3004 49.3071L33.8596 49.3071L33.8596 46.5263L26.1402 46.5263L26.1402 49.3071L28.7203 49.3071Z" fill="#FF31DE"/>
</g>
<path d="M28.429 35.8294L28.429 39.2419L31.5952 39.2419L31.5952 35.8294L34.7358 35.8294L34.7358 32.4168L25.2635 32.4168L25.2635 35.8294L28.429 35.8294Z" fill="#FF31DE"/>
<path d="M31.5952 19.3501L31.5952 15.9382L28.429 15.9382L28.429 19.3501L31.5952 19.3501Z" fill="#FF31DE"/>
<path d="M31.5952 22.7626L31.5952 19.35L28.429 19.35L28.429 22.7626L31.5952 22.7626Z" fill="#680358"/>
<path d="M34.7358 19.3501L34.7358 15.9382L31.5703 15.9382L31.5703 19.3501L34.7358 19.3501Z" fill="#680358"/>
<path d="M28.4292 19.3501L28.4292 15.9382L25.2637 15.9382L25.2637 19.3501L28.4292 19.3501Z" fill="#680358"/>
<path d="M25.2635 29.005L34.7358 29.005L34.7358 32.4169L25.2635 32.4169L25.2635 29.005Z" fill="#680358"/>
<path d="M40.2358 35.8295L40.2358 32.3377L43.3764 32.3377L43.3764 28.8466L46.5171 28.8466L46.5171 8.95464L43.3764 8.95464L43.3764 12.4464L40.2358 12.4464L40.2358 15.9382L37.0951 15.9382L37.0951 35.8295L40.2358 35.8295Z" fill="#FF31DE"/>
<mask id="mask1_15_917" style="mask-type:luminance" maskUnits="userSpaceOnUse" x="46" y="5" width="4" height="28">
<path d="M49.6577 32.5009L46.458 32.5009L46.458 5.17353L49.6577 5.17353L49.6577 32.5009Z" fill="white"/>
</mask>
<g mask="url(#mask1_15_917)">
<path d="M46.5171 5.30774L49.6584 5.30774L49.6584 32.3376L46.5171 32.3376L46.5171 5.30774Z" fill="#A0138A"/>
</g>
<mask id="mask2_15_917" style="mask-type:luminance" maskUnits="userSpaceOnUse" x="46" y="2" width="4" height="4">
<path d="M49.6577 5.34534L46.458 5.34534L46.458 2.15701L49.6577 2.15701L49.6577 5.34534Z" fill="white"/>
</mask>
<g mask="url(#mask2_15_917)">
<path d="M46.5171 2.17178L49.6584 2.17178L49.6584 5.30774L46.5171 5.30774L46.5171 2.17178Z" fill="#680358"/>
</g>
<path d="M19.7644 35.8295L19.7644 32.3377L16.623 32.3377L16.623 28.8466L13.4824 28.8466L13.4824 8.95464L16.623 8.95464L16.623 12.4464L19.7644 12.4464L19.7644 15.9382L22.905 15.9382L22.905 35.8295L19.7644 35.8295Z" fill="#FF31DE"/>
<mask id="mask3_15_917" style="mask-type:luminance" maskUnits="userSpaceOnUse" x="10" y="5" width="4" height="28">
<path d="M13.6309 32.5009L10.3425 32.5009L10.3425 5.17353L13.6309 5.17353L13.6309 32.5009Z" fill="white"/>
</mask>
<g mask="url(#mask3_15_917)">
<path d="M13.4832 5.30774L10.3418 5.30774L10.3418 32.3376L13.4832 32.3376L13.4832 5.30774Z" fill="#A0138A"/>
</g>
<mask id="mask4_15_917" style="mask-type:luminance" maskUnits="userSpaceOnUse" x="10" y="2" width="4" height="4">
<path d="M13.6309 5.34534L10.3425 5.34534L10.3425 2.15701L13.6309 2.15701L13.6309 5.34534Z" fill="white"/>
</mask>
<g mask="url(#mask4_15_917)">
<path d="M13.4832 2.17178L10.3418 2.17178L10.3418 5.30774L13.4832 5.30774L13.4832 2.17178Z" fill="#680358"/>
</g>
<path d="M34.7358 14.5652L34.7358 7.74074L31.5703 7.74074L31.5703 14.5652L34.7358 14.5652Z" fill="#EADC2D"/>
<path d="M31.5952 7.74084L31.5952 4.32829L28.429 4.32829L28.429 7.74084L31.5952 7.74084Z" fill="#EADC2D"/>
<path d="M28.4292 14.5652L28.4292 7.74074L25.2637 7.74074L25.2637 14.5652L28.4292 14.5652Z" fill="#EADC2D"/>
<path d="M31.5952 14.5652L31.5952 7.74074L28.429 7.74074L28.429 14.5652L31.5952 14.5652Z" fill="#FF31DE"/>
</svg>
