<svg width="60" height="60" viewBox="0 0 60 60" fill="none" xmlns="http://www.w3.org/2000/svg">
<mask id="mask0_15_923" style="mask-type:luminance" maskUnits="userSpaceOnUse" x="8" y="8" width="44" height="44">
<path d="M8.51855 8H51.4815V51.8789H8.51855V8Z" fill="white"/>
</mask>
<g mask="url(#mask0_15_923)">
<path d="M48.6135 25.1889V22.3309H40.0193V19.4636H37.1605V16.6048H34.2925V10.8795H31.4337V8.01221H28.5656V10.8795H25.6983V16.6048H22.8395V19.4636H19.9715V22.3309H11.3858V25.1889H8.51855V30.9235H11.3858V33.7823H14.2446V49.121L17.8341 51.7684L22.8395 49.121L25.6983 46.2622L29.2786 44.8286L34.2925 46.2622L37.1605 49.121L41.4445 51.3895L45.7454 49.121V33.7823H48.6135V30.9235H51.4815V25.1889H48.6135Z" fill="#FDDE5F"/>
</g>
<path d="M31.4335 43.3953H25.6982V46.2625H22.8394V49.1298H25.7066V46.2625H34.2923V43.3953H31.4335Z" fill="#FD8726"/>
<mask id="mask1_15_923" style="mask-type:luminance" maskUnits="userSpaceOnUse" x="14" y="49" width="9" height="3">
<path d="M14.2153 49.1135H22.9067V52.0001H14.2153V49.1135Z" fill="white"/>
</mask>
<g mask="url(#mask1_15_923)">
<path d="M17.1129 49.1211H14.2449V51.9884H22.8398V49.1211H17.1129Z" fill="#FD8726"/>
</g>
<mask id="mask2_15_923" style="mask-type:luminance" maskUnits="userSpaceOnUse" x="34" y="46" width="12" height="6">
<path d="M34.166 46.1504H45.8203V51.9999H34.166V46.1504Z" fill="white"/>
</mask>
<g mask="url(#mask2_15_923)">
<path d="M42.8869 49.121H37.1608V46.2622H34.2927V49.1295H37.1608V51.9883H45.7457V49.121H42.8869Z" fill="#FD8726"/>
</g>
<path d="M45.7453 25.1891H40.0192V22.3311H37.1604V19.4638H34.2924V16.605H31.4336V19.4638H34.2924V22.3311H37.1604V25.1891H40.0192V28.0564H48.6134V25.1891H45.7453Z" fill="white"/>
<path d="M25.6982 19.4638H22.8394V22.3311H25.7066V19.4638H28.5654V16.605H25.6982V19.4638Z" fill="white"/>
<path d="M28.5657 10.8796H31.4337V13.7469H28.5657V10.8796Z" fill="white"/>
<path d="M19.9714 25.1891H11.3857V28.0564H19.9714V25.1983H22.8394V22.3311H19.9714V25.1891Z" fill="white"/>
<path d="M22.8394 30.9237V33.7825H25.6982V28.0564H22.8394V30.9237Z" fill="#4D3C3E"/>
<path d="M34.2925 28.0564V33.7825H37.1605V28.0564H34.2925Z" fill="#4D3C3E"/>
</svg>
