<svg width="720" height="720" viewBox="0 0 720 720" fill="none" xmlns="http://www.w3.org/2000/svg">
<g clip-path="url(#clip0_14_910)">
<path d="M60 0H0V60M60 0V60M60 0H120M60 60H0M60 60H120M60 60V120M0 60V120M120 0V60M120 0H180M120 60H180M120 60V120M180 0V60M180 0H240M180 60H240M180 60V120M240 0V60M240 0H300M240 60H300M240 60V120M300 0V60M300 0H360M300 60H360M300 60V120M360 0V60M360 0H420M360 60H420M360 60V120M420 0V60M420 0H480M420 60H480M420 60V120M480 0V60M480 0H540M480 60H540M480 60V120M540 0V60M540 0H600M540 60H600M540 60V120M600 0V60M600 0H660M600 60H660M600 60V120M660 0V60M660 0H720V60M660 60H720M660 60V120M720 60V120M60 120H0M60 120H120M60 120V180M0 120V180M120 120H180M120 120V180M180 120H240M180 120V180M240 120H300M240 120V180M300 120H360M300 120V180M360 120H420M360 120V180M420 120H480M420 120V180M480 120H540M480 120V180M540 120H600M540 120V180M600 120H660M600 120V180M660 120H720M660 120V180M720 120V180M60 180H0M60 180H120M60 180V240M0 180V240M120 180H180M120 180V240M180 180H240M180 180V240M240 180H300M240 180V240M300 180H360M300 180V240M360 180H420M360 180V240M420 180H480M420 180V240M480 180H540M480 180V240M540 180H600M540 180V240M600 180H660M600 180V240M660 180H720M660 180V240M720 180V240M60 240H0M60 240H120M60 240V300M0 240V300M120 240H180M120 240V300M180 240H240M180 240V300M240 240H300M240 240V300M300 240H360M300 240V300M360 240H420M360 240V300M420 240H480M420 240V300M480 240H540M480 240V300M540 240H600M540 240V300M600 240H660M600 240V300M660 240H720M660 240V300M720 240V300M60 300H0M60 300H120M60 300V360M0 300V360M120 300H180M120 300V360M180 300H240M180 300V360M240 300H300M240 300V360M300 300H360M300 300V360M360 300H420M360 300V360M420 300H480M420 300V360M480 300H540M480 300V360M540 300H600M540 300V360M600 300H660M600 300V360M660 300H720M660 300V360M720 300V360M60 360H0M60 360H120M60 360V420M0 360V420M120 360H180M120 360V420M180 360H240M180 360V420M240 360H300M240 360V420M300 360H360M300 360V420M360 360H420M360 360V420M420 360H480M420 360V420M480 360H540M480 360V420M540 360H600M540 360V420M600 360H660M600 360V420M660 360H720M660 360V420M720 360V420M60 420H0M60 420H120M60 420V480M0 420V480M120 420H180M120 420V480M180 420H240M180 420V480M240 420H300M240 420V480M300 420H360M300 420V480M360 420H420M360 420V480M420 420H480M420 420V480M480 420H540M480 420V480M540 420H600M540 420V480M600 420H660M600 420V480M660 420H720M660 420V480M720 420V480M60 480H0M60 480H120M60 480V540M0 480V540M120 480H180M120 480V540M180 480H240M180 480V540M240 480H300M240 480V540M300 480H360M300 480V540M360 480H420M360 480V540M420 480H480M420 480V540M480 480H540M480 480V540M540 480H600M540 480V540M600 480H660M600 480V540M660 480H720M660 480V540M720 480V540M60 540H0M60 540H120M60 540V600M0 540V600M120 540H180M120 540V600M180 540H240M180 540V600M240 540H300M240 540V600M300 540H360M300 540V600M360 540H420M360 540V600M420 540H480M420 540V600M480 540H540M480 540V600M540 540H600M540 540V600M600 540H660M600 540V600M660 540H720M660 540V600M720 540V600M60 600H0M60 600H120M60 600V660M0 600V660M120 600H180M120 600V660M180 600H240M180 600V660M240 600H300M240 600V660M300 600H360M300 600V660M360 600H420M360 600V660M420 600H480M420 600V660M480 600H540M480 600V660M540 600H600M540 600V660M600 600H660M600 600V660M660 600H720M660 600V660M720 600V660M60 660H0M60 660H120M60 660V720M0 660V720H60M120 660H180M120 660V720M180 660H240M180 660V720M240 660H300M240 660V720M300 660H360M300 660V720M360 660H420M360 660V720M420 660H480M420 660V720M480 660H540M480 660V720M540 660H600M540 660V720M600 660H660M600 660V720M660 660H720M660 660V720M720 660V720H660M60 720H120M120 720H180M180 720H240M240 720H300M300 720H360M360 720H420M420 720H480M480 720H540M540 720H600M600 720H660" stroke="#320085"/>
</g>
<defs>
<clipPath id="clip0_14_910">
<rect width="720" height="720" fill="white"/>
</clipPath>
</defs>
</svg>
